<svg width="16" height="20" viewBox="0 0 16 20" fill="none" xmlns="http://www.w3.org/2000/svg">
<circle cx="8" cy="10" r="8" fill="#29F952"/>
<path d="M5.04102 5.69434H8.51318C9.2749 5.69434 9.91178 5.76628 10.4238 5.91016C10.9401 6.0498 11.3485 6.35661 11.6489 6.83057C11.9494 7.30029 12.0996 7.82715 12.0996 8.41113C12.0996 9.35059 11.8013 10.0636 11.2046 10.5503C10.6079 11.0369 9.74463 11.2803 8.61475 11.2803H6.27246V15H5.04102V5.69434ZM6.27246 10.1758H8.62744C9.41878 10.1758 9.98161 10.0277 10.3159 9.73145C10.6545 9.43522 10.8237 9.00781 10.8237 8.44922C10.8237 8.07682 10.7306 7.74674 10.5444 7.45898C10.3582 7.17122 10.1213 6.98926 9.8335 6.91309C9.54997 6.83691 9.13949 6.79883 8.60205 6.79883H6.27246V10.1758Z" fill="black"/>
</svg>
