<svg width="95" height="72" viewBox="0 0 95 72" fill="none" xmlns="http://www.w3.org/2000/svg">
<rect y="15" width="95" height="46" rx="10" fill="black"/>
<path d="M31.56 42.16L26.448 28.792C26.08 27.88 25.712 26.728 25.344 25.336C25.168 26.024 24.984 26.664 24.792 27.256C24.616 27.848 24.44 28.376 24.264 28.84L19.176 42.16H31.56ZM41.664 55H37.728C37.28 55 36.912 54.888 36.624 54.664C36.336 54.44 36.128 54.152 36 53.8L32.952 45.808H17.76L14.712 53.8C14.6 54.104 14.392 54.384 14.088 54.64C13.784 54.88 13.416 55 12.984 55H9.048L22.776 20.536H27.936L41.664 55ZM73.6628 20.536V55H68.5508V39.472H50.5748V55H45.4388V20.536H50.5748V35.752H68.5508V20.536H73.6628Z" fill="#29F952"/>
<g filter="url(#filter0_di_103_1894)">
<path d="M10.8828 48.0098L8.31445 48L7.49414 48.0098C7.38346 48.0098 7.27279 47.9935 7.16211 47.9609C6.8431 47.8047 6.68359 47.5605 6.68359 47.2285V32.6484C6.68359 32.4531 6.7194 32.2969 6.79102 32.1797C6.96029 31.8411 7.20117 31.6719 7.51367 31.6719C9.33659 31.6719 10.5605 31.6686 11.1855 31.6621C11.6543 31.6621 11.9896 31.6654 12.1914 31.6719C13.5326 31.7305 14.6621 32.2188 15.5801 33.1367C16.5632 34.1198 17.0547 35.2852 17.0547 36.6328C17.0547 37.987 16.5632 39.1556 15.5801 40.1387C15.4173 40.3079 15.2383 40.4642 15.043 40.6074C14.1966 41.2324 13.2721 41.5449 12.2695 41.5449C11.5469 41.5449 10.821 41.3529 10.0918 40.9688C9.63607 40.7279 9.37891 40.5879 9.32031 40.5488C9.15755 40.4512 8.99154 40.4023 8.82227 40.4023C8.56185 40.4023 8.3763 40.513 8.26562 40.7344C8.1875 40.8711 8.14844 41.0241 8.14844 41.1934C8.1875 41.6361 8.34049 42.056 8.60742 42.4531C8.93945 42.9544 9.4082 43.4785 10.0137 44.0254C10.3197 44.2988 10.6094 44.5918 10.8828 44.9043C11.3581 45.4316 11.6087 46.0371 11.6348 46.7207C11.6283 46.9876 11.5632 47.2643 11.4395 47.5508C11.3158 47.8307 11.1302 47.9837 10.8828 48.0098ZM11.6543 37.6875C12.4616 37.6875 13.1517 37.5801 13.7246 37.3652C14.2975 37.1504 14.584 36.89 14.584 36.584C14.584 36.278 14.2975 36.0176 13.7246 35.8027C13.1517 35.5879 12.4616 35.4805 11.6543 35.4805C10.847 35.4805 10.1569 35.5879 9.58398 35.8027C9.01107 36.0176 8.72461 36.278 8.72461 36.584C8.72461 36.89 9.01107 37.1504 9.58398 37.3652C10.1569 37.5801 10.847 37.6875 11.6543 37.6875ZM22.4695 48C20.8223 48 19.4291 47.3848 18.2898 46.1543C17.1504 44.9173 16.5808 43.4557 16.5808 41.7695C16.5808 40.0768 17.1504 38.6152 18.2898 37.3848C19.4291 36.1543 20.8223 35.5391 22.4695 35.5391C24.1166 35.5391 25.5098 36.1543 26.6491 37.3848C27.7885 38.6152 28.3581 40.0768 28.3581 41.7695C28.3581 43.4557 27.7885 44.9173 26.6491 46.1543C25.5098 47.3848 24.1166 48 22.4695 48ZM22.4695 45.8418C23.1661 45.8418 23.7585 45.4447 24.2468 44.6504C24.7351 43.8561 24.9792 42.8958 24.9792 41.7695C24.9792 40.6497 24.7351 39.6927 24.2468 38.8984C23.7585 38.1042 23.1661 37.707 22.4695 37.707C21.7728 37.707 21.1804 38.1042 20.6921 38.8984C20.2038 39.6927 19.9597 40.6497 19.9597 41.7695C19.9597 42.8958 20.2038 43.8561 20.6921 44.6504C21.1804 45.4447 21.7728 45.8418 22.4695 45.8418ZM31.644 48H29.7299C29.5867 48 29.463 47.9512 29.3588 47.8535C29.2612 47.7493 29.2123 47.6257 29.2123 47.4824V36.0762C29.2123 35.9329 29.2612 35.8125 29.3588 35.7148C29.463 35.6172 29.5867 35.5684 29.7299 35.5684H31.644C31.7872 35.5684 31.9077 35.6172 32.0053 35.7148C32.103 35.8125 32.1551 35.9362 32.1616 36.0859L32.1518 36.5742C32.8549 35.9883 33.5092 35.6465 34.1147 35.5488C34.7202 35.4447 35.1629 35.3926 35.4428 35.3926C36.0613 35.3926 36.6635 35.5098 37.2495 35.7441C38.0242 36.0566 38.4767 36.5221 38.6069 37.1406C38.6199 37.2253 38.6264 37.3099 38.6264 37.3945C38.6264 37.7982 38.4376 38.2669 38.06 38.8008C37.8386 39.1458 37.5652 39.4323 37.2397 39.6602C36.9988 39.8164 36.7449 39.8945 36.478 39.8945C36.3543 39.8945 36.2273 39.8783 36.0971 39.8457C35.739 39.6829 35.4461 39.4258 35.2182 39.0742L35.062 38.8789C34.7755 38.5339 34.5151 38.3483 34.2807 38.3223C34.0528 38.2962 33.9064 38.2832 33.8412 38.2832C33.3269 38.2832 32.8419 38.5436 32.3862 39.0645C32.2364 39.2402 32.1616 39.4095 32.1616 39.5723V47.4824C32.1616 47.6257 32.1095 47.7493 32.0053 47.8535C31.9077 47.9512 31.7872 48 31.644 48ZM45.1154 48C43.9305 48 42.9181 47.6452 42.0783 46.9355C41.3882 46.3105 40.9943 45.6595 40.8966 44.9824C40.799 44.3053 40.7502 43.6934 40.7502 43.1465C40.7502 42.8405 40.7632 42.5312 40.7892 42.2188C40.8153 41.8281 40.8283 41.4473 40.8283 41.0762V38.1465H39.6271C39.4513 38.1465 39.3016 38.0846 39.1779 37.9609C39.0542 37.8372 38.9923 37.6908 38.9923 37.5215V36.1836C38.9923 36.0078 39.0542 35.8613 39.1779 35.7441C39.3016 35.6204 39.4513 35.5586 39.6271 35.5586H40.8283V33.3223C40.8283 33.1465 40.8901 33 41.0138 32.8828C41.1375 32.7591 41.284 32.6973 41.4533 32.6973H43.1623C43.3315 32.6973 43.478 32.7591 43.6017 32.8828C43.7254 33 43.7873 33.1465 43.7873 33.3223V35.5586H46.6584C46.8341 35.5586 46.9839 35.6204 47.1076 35.7441C47.2313 35.8613 47.2931 36.0078 47.2931 36.1836V37.5215C47.2931 37.6908 47.2313 37.8372 47.1076 37.9609C46.9839 38.0846 46.8341 38.1465 46.6584 38.1465H43.7873V41.291C43.7873 41.7402 43.7677 42.1927 43.7287 42.6484C43.6961 43.0326 43.6798 43.4199 43.6798 43.8105C43.6798 44.1556 43.6929 44.5039 43.7189 44.8555C43.7254 45.1159 43.8003 45.3503 43.9435 45.5586C44.1388 45.7734 44.4058 45.8809 44.7443 45.8809C45.4409 45.8809 45.838 45.5163 45.9357 44.7871C45.9357 44.5723 45.9976 44.3249 46.1213 44.0449C46.3035 43.7389 46.5705 43.5339 46.922 43.4297C47.1759 43.3451 47.4298 43.3027 47.6838 43.3027C47.7814 43.3027 47.8791 43.3092 47.9767 43.3223C48.3218 43.3678 48.5952 43.5534 48.797 43.8789C48.9728 44.224 49.0607 44.5658 49.0607 44.9043C49.0607 45.2884 48.95 45.6693 48.7287 46.0469C48.3446 46.6719 47.8237 47.1536 47.1662 47.4922C46.5086 47.8307 45.825 48 45.1154 48ZM52.2587 48H50.6376C50.4553 48 50.299 47.9349 50.1688 47.8047C50.0386 47.6745 49.9735 47.5182 49.9735 47.3359V38.1074H48.9579C48.7365 38.1074 48.5477 38.0293 48.3915 37.873C48.2352 37.7168 48.1571 37.528 48.1571 37.3066V36.3203C48.1571 36.099 48.2352 35.9102 48.3915 35.7539C48.5477 35.5977 48.7365 35.5195 48.9579 35.5195H49.9735V34.2402C49.9735 33.2507 50.4032 32.401 51.2626 31.6914C52.0048 31.1185 52.6851 30.7962 53.3036 30.7246C53.9221 30.6465 54.3518 30.6074 54.5927 30.6074C55.3153 30.6074 56.0022 30.7409 56.6532 31.0078C57.1089 31.1966 57.4898 31.4635 57.7958 31.8086C58.1018 32.1471 58.2548 32.5345 58.2548 32.9707C58.2548 33.2767 58.1571 33.5664 57.9618 33.8398C57.5647 34.3477 57.0829 34.6016 56.5165 34.6016C55.9501 34.6016 55.452 34.416 55.0223 34.0449C54.827 33.8626 54.648 33.6641 54.4852 33.4492C53.9904 32.7852 53.5054 32.4531 53.0302 32.4531C52.9455 32.4531 52.8576 32.4629 52.7665 32.4824C52.4735 32.5736 52.2717 32.7396 52.161 32.9805C52.0503 33.2214 51.995 33.446 51.995 33.6543C51.995 34.0124 52.122 34.4095 52.3759 34.8457C52.6493 35.321 52.9846 35.5586 53.3817 35.5586C53.551 35.5586 53.7235 35.5521 53.8993 35.5391C54.036 35.526 54.6154 35.5195 55.6376 35.5195C55.8589 35.5195 56.0477 35.5977 56.204 35.7539C56.3602 35.9102 56.4384 36.099 56.4384 36.3203V37.3066C56.4384 37.528 56.3602 37.7168 56.204 37.873C56.0477 38.0293 55.8589 38.1074 55.6376 38.1074H52.9227V47.3359C52.9227 47.5182 52.8576 47.6745 52.7274 47.8047C52.5972 47.9349 52.441 48 52.2587 48ZM61.8238 48C60.1767 48 58.7835 47.3848 57.6441 46.1543C56.5048 44.9173 55.9352 43.4557 55.9352 41.7695C55.9352 40.0768 56.5048 38.6152 57.6441 37.3848C58.7835 36.1543 60.1767 35.5391 61.8238 35.5391C63.471 35.5391 64.8642 36.1543 66.0035 37.3848C67.1428 38.6152 67.7125 40.0768 67.7125 41.7695C67.7125 43.4557 67.1428 44.9173 66.0035 46.1543C64.8642 47.3848 63.471 48 61.8238 48ZM61.8238 45.8418C62.5204 45.8418 63.1129 45.4447 63.6012 44.6504C64.0895 43.8561 64.3336 42.8958 64.3336 41.7695C64.3336 40.6497 64.0895 39.6927 63.6012 38.8984C63.1129 38.1042 62.5204 37.707 61.8238 37.707C61.1272 37.707 60.5348 38.1042 60.0465 38.8984C59.5582 39.6927 59.3141 40.6497 59.3141 41.7695C59.3141 42.8958 59.5582 43.8561 60.0465 44.6504C60.5348 45.4447 61.1272 45.8418 61.8238 45.8418ZM70.9105 47.9805H69.1722C69.0029 47.9805 68.8597 47.9219 68.7425 47.8047C68.6253 47.6875 68.5667 47.5443 68.5667 47.375V31.2324C68.5667 31.0697 68.6253 30.9297 68.7425 30.8125C68.8597 30.6953 69.0029 30.6367 69.1722 30.6367H70.9105C71.0797 30.6367 71.223 30.6953 71.3402 30.8125C71.4573 30.9297 71.5159 31.0697 71.5159 31.2324V47.375C71.5159 47.5443 71.4573 47.6875 71.3402 47.8047C71.223 47.9219 71.0797 47.9805 70.9105 47.9805ZM74.4112 34.1426C73.8838 34.1426 73.4444 33.9701 73.0928 33.625C72.7412 33.2734 72.5655 32.8665 72.5655 32.4043C72.5655 31.9421 72.7412 31.5352 73.0928 31.1836C73.4444 30.832 73.8838 30.6562 74.4112 30.6562C74.9385 30.6562 75.3747 30.832 75.7198 31.1836C76.0713 31.5352 76.2471 31.9421 76.2471 32.4043C76.2471 32.8665 76.0713 33.2734 75.7198 33.625C75.3747 33.9701 74.9385 34.1426 74.4112 34.1426ZM75.2022 48H73.6202C73.4314 48 73.2686 47.9349 73.1319 47.8047C73.0017 47.6745 72.9366 47.515 72.9366 47.3262V36.2031C72.9366 36.0143 73.0017 35.8548 73.1319 35.7246C73.2686 35.5879 73.4314 35.5195 73.6202 35.5195H75.2022C75.391 35.5195 75.5505 35.5879 75.6807 35.7246C75.8174 35.8548 75.8858 36.0143 75.8858 36.2031V47.3262C75.8858 47.515 75.8174 47.6745 75.6807 47.8047C75.5505 47.9349 75.391 48 75.2022 48ZM82.7068 48C81.0597 48 79.6664 47.3848 78.5271 46.1543C77.3878 44.9173 76.8181 43.4557 76.8181 41.7695C76.8181 40.0768 77.3878 38.6152 78.5271 37.3848C79.6664 36.1543 81.0597 35.5391 82.7068 35.5391C84.3539 35.5391 85.7472 36.1543 86.8865 37.3848C88.0258 38.6152 88.5955 40.0768 88.5955 41.7695C88.5955 43.4557 88.0258 44.9173 86.8865 46.1543C85.7472 47.3848 84.3539 48 82.7068 48ZM82.7068 45.8418C83.4034 45.8418 83.9959 45.4447 84.4841 44.6504C84.9724 43.8561 85.2166 42.8958 85.2166 41.7695C85.2166 40.6497 84.9724 39.6927 84.4841 38.8984C83.9959 38.1042 83.4034 37.707 82.7068 37.707C82.0102 37.707 81.4177 38.1042 80.9295 38.8984C80.4412 39.6927 80.197 40.6497 80.197 41.7695C80.197 42.8958 80.4412 43.8561 80.9295 44.6504C81.4177 45.4447 82.0102 45.8418 82.7068 45.8418Z" fill="#D9D9D9"/>
</g>
<defs>
<filter id="filter0_di_103_1894" x="2.68359" y="30.6074" width="89.9119" height="25.4023" filterUnits="userSpaceOnUse" color-interpolation-filters="sRGB">
<feFlood flood-opacity="0" result="BackgroundImageFix"/>
<feColorMatrix in="SourceAlpha" type="matrix" values="0 0 0 0 0 0 0 0 0 0 0 0 0 0 0 0 0 0 127 0" result="hardAlpha"/>
<feOffset dy="4"/>
<feGaussianBlur stdDeviation="2"/>
<feComposite in2="hardAlpha" operator="out"/>
<feColorMatrix type="matrix" values="0 0 0 0 0 0 0 0 0 0 0 0 0 0 0 0 0 0 0.25 0"/>
<feBlend mode="normal" in2="BackgroundImageFix" result="effect1_dropShadow_103_1894"/>
<feBlend mode="normal" in="SourceGraphic" in2="effect1_dropShadow_103_1894" result="shape"/>
<feColorMatrix in="SourceAlpha" type="matrix" values="0 0 0 0 0 0 0 0 0 0 0 0 0 0 0 0 0 0 127 0" result="hardAlpha"/>
<feOffset dy="4"/>
<feGaussianBlur stdDeviation="2"/>
<feComposite in2="hardAlpha" operator="arithmetic" k2="-1" k3="1"/>
<feColorMatrix type="matrix" values="0 0 0 0 0 0 0 0 0 0 0 0 0 0 0 0 0 0 0.25 0"/>
<feBlend mode="normal" in2="shape" result="effect2_innerShadow_103_1894"/>
</filter>
</defs>
</svg>
